FrancoisOne-Regular.ufo
<glyph name="exclam" format="1">
  <advance width="543"/>
  <unicode hex="0021"/>
  <outline>
    <contour>
      <point x="176" y="448" type="line"/>
      <point x="368" y="448" type="line"/>
      <point x="415" y="1536" type="line"/>
      <point x="127" y="1536" type="line"/>
    </contour>
    <contour>
      <point x="415" y="0" type="line"/>
      <point x="415" y="300" type="line"/>
      <point x="127" y="300" type="line"/>
      <point x="127" y="-12" type="line"/>
    </contour>
  </outline>
</glyph>
<glyph name="hyphen" format="1">
  <advance width="804"/>
  <unicode hex="002D"/>
  <outline>
    <contour>
      <point x="114" y="480" type="line"/>
      <point x="690" y="480" type="line"/>
      <point x="690" y="718" type="line"/>
      <point x="114" y="718" type="line"/>
    </contour>
  </outline>
</glyph>
<glyph name="three" format="1">
  <advance width="1068"/>
  <unicode hex="0033"/>
  <outline>
    <contour>
      <point x="289" y="1178" type="line"/>
      <point x="325" y="1278"/>
      <point x="407" y="1325"/>
      <point x="484" y="1325" type="curve" smooth="yes"/>
      <point x="572" y="1325"/>
      <point x="655" y="1263"/>
      <point x="655" y="1148" type="curve" smooth="yes"/>
      <point x="655" y="1146" type="line" smooth="yes"/>
      <point x="653" y="966"/>
      <point x="517" y="886"/>
      <point x="352" y="886" type="curve"/>
      <point x="352" y="686" type="line"/>
      <point x="530" y="686"/>
      <point x="677" y="653"/>
      <point x="677" y="441" type="curve" smooth="yes"/>
      <point x="677" y="280"/>
      <point x="591" y="213"/>
      <point x="498" y="213" type="curve" smooth="yes"/>
      <point x="399" y="213"/>
      <point x="315" y="256"/>
      <point x="266" y="395" type="curve"/>
      <point x="48" y="300" type="line"/>
      <point x="104" y="71"/>
      <point x="300" y="-28"/>
      <point x="511" y="-28" type="curve" smooth="yes"/>
      <point x="747" y="-28"/>
      <point x="966" y="127"/>
      <point x="966" y="411" type="curve" smooth="yes"/>
      <point x="966" y="617"/>
      <point x="856" y="755"/>
      <point x="689" y="808" type="curve"/>
      <point x="860" y="866"/>
      <point x="946" y="998"/>
      <point x="946" y="1171" type="curve" smooth="yes"/>
      <point x="946" y="1427"/>
      <point x="734" y="1564"/>
      <point x="524" y="1564" type="curve" smooth="yes"/>
      <point x="329" y="1564"/>
      <point x="177" y="1491"/>
      <point x="83" y="1295" type="curve"/>
    </contour>
  </outline>
</glyph>
<glyph name="six" format="1">
  <advance width="1068"/>
  <unicode hex="0036"/>
  <outline>
    <contour>
      <point x="110" y="773" type="curve" smooth="yes"/>
      <point x="110" y="396"/>
      <point x="180" y="-28"/>
      <point x="555" y="-28" type="curve" smooth="yes"/>
      <point x="809" y="-28"/>
      <point x="983" y="235"/>
      <point x="983" y="511" type="curve" smooth="yes"/>
      <point x="983" y="731"/>
      <point x="851" y="933"/>
      <point x="639" y="933" type="curve" smooth="yes"/>
      <point x="556" y="933"/>
      <point x="466" y="902"/>
      <point x="403" y="855" type="curve"/>
      <point x="403" y="1011"/>
      <point x="417" y="1324"/>
      <point x="579" y="1324" type="curve" smooth="yes"/>
      <point x="686" y="1324"/>
      <point x="702" y="1216"/>
      <point x="718" y="1140" type="curve"/>
      <point x="942" y="1192" type="line"/>
      <point x="910" y="1431"/>
      <point x="770" y="1564"/>
      <point x="598" y="1564" type="curve" smooth="yes"/>
      <point x="246" y="1564"/>
      <point x="110" y="1099"/>
    </contour>
    <contour>
      <point x="403" y="604" type="curve" smooth="yes"/>
      <point x="403" y="614.483"/>
      <point x="405" y="646"/>
      <point x="405" y="646" type="curve"/>
      <point x="468.511" y="680.931"/>
      <point x="504" y="691"/>
      <point x="541" y="691" type="curve" smooth="yes"/>
      <point x="660" y="691"/>
      <point x="700" y="575"/>
      <point x="700" y="468" type="curve" smooth="yes"/>
      <point x="700" y="364"/>
      <point x="670" y="212"/>
      <point x="545" y="212" type="curve" smooth="yes"/>
      <point x="393" y="212"/>
      <point x="403" y="473"/>
    </contour>
  </outline>
</glyph>
<glyph name="seven" format="1">
  <advance width="1068"/>
  <unicode hex="0037"/>
  <outline>
    <contour>
      <point x="595" y="0" type="line"/>
      <point x="595" y="383"/>
      <point x="738" y="864"/>
      <point x="970" y="1323" type="curve"/>
      <point x="970" y="1536" type="line"/>
      <point x="142" y="1536" type="line"/>
      <point x="118" y="1288" type="line"/>
      <point x="619" y="1288" type="line"/>
      <point x="427" y="827"/>
      <point x="300" y="404"/>
      <point x="265" y="0" type="curve"/>
    </contour>
  </outline>
</glyph>
<glyph name="colon" format="1">
  <advance width="516"/>
  <unicode hex="003A"/>
  <outline>
    <contour>
      <point x="114" y="288" type="line"/>
      <point x="114" y="-12" type="line"/>
      <point x="402" y="0" type="line"/>
      <point x="402" y="288" type="line"/>
    </contour>
    <contour>
      <point x="114" y="864" type="line"/>
      <point x="114" y="576" type="line"/>
      <point x="402" y="576" type="line"/>
      <point x="402" y="864" type="line"/>
    </contour>
  </outline>
</glyph>
<glyph name="greater" format="1">
  <advance width="976"/>
  <unicode hex="003E"/>
  <outline>
    <contour>
      <point x="920" y="439" type="line"/>
      <point x="920" y="704" type="line"/>
      <point x="110" y="1064" type="line"/>
      <point x="124" y="803" type="line"/>
      <point x="575" y="607" type="line"/>
      <point x="98" y="432" type="line"/>
      <point x="112" y="89" type="line"/>
    </contour>
  </outline>
</glyph>
<glyph name="C" format="1">
  <advance width="1069"/>
  <unicode hex="0043"/>
  <outline>
    <contour>
      <point x="742" y="547" type="line"/>
      <point x="731" y="414"/>
      <point x="705" y="212"/>
      <point x="580" y="212" type="curve" smooth="yes"/>
      <point x="407" y="212"/>
      <point x="381" y="510"/>
      <point x="381" y="800" type="curve" smooth="yes"/>
      <point x="381" y="1027"/>
      <point x="407" y="1324"/>
      <point x="551" y="1324" type="curve" smooth="yes"/>
      <point x="699" y="1324"/>
      <point x="705" y="1027"/>
      <point x="705" y="995" type="curve"/>
      <point x="995" y="1010" type="line"/>
      <point x="995" y="1281"/>
      <point x="837" y="1564"/>
      <point x="568" y="1564" type="curve" smooth="yes"/>
      <point x="208" y="1564"/>
      <point x="81" y="1145"/>
      <point x="81" y="800" type="curve" smooth="yes"/>
      <point x="81" y="412"/>
      <point x="175" y="-28"/>
      <point x="561" y="-28" type="curve" smooth="yes"/>
      <point x="857" y="-28"/>
      <point x="997" y="237"/>
      <point x="997" y="523" type="curve"/>
    </contour>
  </outline>
</glyph>
<glyph name="D" format="1">
  <advance width="1134"/>
  <unicode hex="0044"/>
  <outline>
    <contour>
      <point x="144" y="0" type="line"/>
      <point x="511" y="0" type="line" smooth="yes"/>
      <point x="914" y="0"/>
      <point x="1061" y="373"/>
      <point x="1061" y="762" type="curve" smooth="yes"/>
      <point x="1061" y="1283"/>
      <point x="862" y="1536"/>
      <point x="458" y="1536" type="curve" smooth="yes"/>
      <point x="144" y="1536" type="line"/>
    </contour>
    <contour>
      <point x="478" y="1296" type="line" smooth="yes"/>
      <point x="781" y="1296"/>
      <point x="761" y="901"/>
      <point x="761" y="705" type="curve" smooth="yes"/>
      <point x="761" y="491"/>
      <point x="715" y="240"/>
      <point x="486" y="240" type="curve" smooth="yes"/>
      <point x="443" y="240" type="line"/>
      <point x="443" y="1296" type="line"/>
    </contour>
  </outline>
</glyph>
<glyph name="G" format="1">
  <advance width="1132"/>
  <unicode hex="0047"/>
  <outline>
    <contour>
      <point x="1025" y="1034" type="line"/>
      <point x="1025" y="1311"/>
      <point x="891" y="1564"/>
      <point x="580" y="1564" type="curve" smooth="yes"/>
      <point x="211" y="1564"/>
      <point x="81" y="1129"/>
      <point x="81" y="774" type="curve" smooth="yes"/>
      <point x="81" y="354"/>
      <point x="196" y="-28"/>
      <point x="521" y="-28" type="curve" smooth="yes"/>
      <point x="776" y="-28"/>
      <point x="823" y="187"/>
      <point x="846" y="285" type="curve"/>
      <point x="895.937" y="82.2241"/>
      <point x="913" y="12"/>
      <point x="916" y="0" type="curve"/>
      <point x="1031" y="12" type="line"/>
      <point x="1031" y="768" type="line"/>
      <point x="614" y="768" type="line"/>
      <point x="590" y="538" type="line"/>
      <point x="742" y="538" type="line"/>
      <point x="742" y="366"/>
      <point x="685" y="212"/>
      <point x="578" y="212" type="curve" smooth="yes"/>
      <point x="381" y="212"/>
      <point x="381" y="538"/>
      <point x="381" y="758" type="curve" smooth="yes"/>
      <point x="381" y="991"/>
      <point x="415" y="1324"/>
      <point x="576" y="1324" type="curve" smooth="yes"/>
      <point x="718" y="1324"/>
      <point x="723" y="1131"/>
      <point x="739" y="1015" type="curve"/>
    </contour>
  </outline>
</glyph>
<glyph name="N" format="1">
  <advance width="1251"/>
  <unicode hex="004E"/>
  <outline>
    <contour>
      <point x="861" y="-12" type="line"/>
      <point x="1107" y="12" type="line"/>
      <point x="1107" y="1536" type="line"/>
      <point x="853" y="1512" type="line"/>
      <point x="853" y="622" type="line"/>
      <point x="457" y="1536" type="line"/>
      <point x="144" y="1524" type="line"/>
      <point x="144" y="0" type="line"/>
      <point x="412" y="12" type="line"/>
      <point x="412" y="948" type="line"/>
    </contour>
  </outline>
</glyph>
<glyph name="U" format="1">
  <advance width="1163"/>
  <unicode hex="0055"/>
  <outline>
    <contour>
      <point x="132" y="506" type="line" smooth="yes"/>
      <point x="132" y="204"/>
      <point x="268" y="-28"/>
      <point x="589" y="-28" type="curve" smooth="yes"/>
      <point x="1006" y="-28"/>
      <point x="1031" y="365"/>
      <point x="1031" y="541" type="curve" smooth="yes"/>
      <point x="1031" y="1536" type="line"/>
      <point x="756" y="1512" type="line"/>
      <point x="756" y="485" type="line" smooth="yes"/>
      <point x="756" y="365"/>
      <point x="755" y="212"/>
      <point x="600" y="212" type="curve" smooth="yes"/>
      <point x="436" y="212"/>
      <point x="432" y="360"/>
      <point x="432" y="482" type="curve" smooth="yes"/>
      <point x="432" y="1536" type="line"/>
      <point x="132" y="1524" type="line"/>
    </contour>
  </outline>
</glyph>
<glyph name="X" format="1">
  <advance width="1064"/>
  <unicode hex="0058"/>
  <outline>
    <contour>
      <point x="719" y="0" type="line"/>
      <point x="1076" y="0" type="line"/>
      <point x="677" y="838" type="line"/>
      <point x="1023" y="1536" type="line"/>
      <point x="737" y="1536" type="line"/>
      <point x="553" y="1137" type="line"/>
      <point x="375" y="1536" type="line"/>
      <point x="16" y="1536" type="line"/>
      <point x="382" y="780" type="line"/>
      <point x="1" y="0" type="line"/>
      <point x="285" y="0" type="line"/>
      <point x="502" y="481" type="line"/>
    </contour>
  </outline>
</glyph>
<glyph name="Y" format="1">
  <advance width="1027"/>
  <unicode hex="0059"/>
  <outline>
    <contour>
      <point x="367" y="-12" type="line"/>
      <point x="670" y="12" type="line"/>
      <point x="670" y="643" type="line"/>
      <point x="1025" y="1536" type="line"/>
      <point x="766" y="1536" type="line"/>
      <point x="538" y="896" type="line"/>
      <point x="327" y="1536" type="line"/>
      <point x="-3" y="1536" type="line"/>
      <point x="367" y="608" type="line"/>
    </contour>
  </outline>
</glyph>
<glyph name="bracketleft" format="1">
  <advance width="692"/>
  <unicode hex="005B"/>
  <outline>
    <contour>
      <point x="141" y="-96" type="line"/>
      <point x="633" y="-96" type="line"/>
      <point x="633" y="95" type="line"/>
      <point x="441" y="95" type="line"/>
      <point x="441" y="1440" type="line"/>
      <point x="633" y="1440" type="line"/>
      <point x="633" y="1632" type="line"/>
      <point x="141" y="1632" type="line"/>
    </contour>
  </outline>
</glyph>
<glyph name="a" format="1">
  <advance width="964"/>
  <unicode hex="0061"/>
  <outline>
    <contour>
      <point x="56" y="327" type="curve" smooth="yes"/>
      <point x="56" y="123"/>
      <point x="160" y="-27"/>
      <point x="317" y="-27" type="curve" smooth="yes"/>
      <point x="416" y="-27"/>
      <point x="525" y="47"/>
      <point x="570" y="129" type="curve"/>
      <point x="602" y="-12" type="line"/>
      <point x="882" y="12" type="line"/>
      <point x="865.601" y="74.8611"/>
      <point x="851" y="146.035"/>
      <point x="851" y="217" type="curve" smooth="yes"/>
      <point x="851" y="813" type="line" smooth="yes"/>
      <point x="851" y="1010"/>
      <point x="740" y="1167"/>
      <point x="480" y="1167" type="curve" smooth="yes"/>
      <point x="313" y="1167"/>
      <point x="125" y="1104"/>
      <point x="96" y="875" type="curve"/>
      <point x="376" y="826" type="line"/>
      <point x="384" y="888"/>
      <point x="410" y="956"/>
      <point x="480" y="956" type="curve" smooth="yes"/>
      <point x="564" y="956"/>
      <point x="563" y="846"/>
      <point x="563" y="740" type="curve"/>
      <point x="362" y="728"/>
      <point x="56" y="653"/>
    </contour>
    <contour>
      <point x="338" y="331" type="curve" smooth="yes"/>
      <point x="338" y="508"/>
      <point x="435" y="568"/>
      <point x="563" y="568" type="curve"/>
      <point x="563" y="247" type="line"/>
      <point x="530.244" y="211.514"/>
      <point x="494.61" y="179"/>
      <point x="452" y="179" type="curve" smooth="yes"/>
      <point x="373" y="179"/>
      <point x="338" y="240"/>
    </contour>
  </outline>
</glyph>
<glyph name="b" format="1">
  <advance width="1060"/>
  <unicode hex="0062"/>
  <outline>
    <contour>
      <point x="342" y="-12" type="line"/>
      <point x="412" y="144" type="line"/>
      <point x="436.283" y="57.6595"/>
      <point x="490.579" y="-27"/>
      <point x="659" y="-27" type="curve" smooth="yes"/>
      <point x="870" y="-27"/>
      <point x="990" y="160"/>
      <point x="990" y="576" type="curve" smooth="yes"/>
      <point x="990" y="1013"/>
      <point x="869" y="1167"/>
      <point x="704" y="1167" type="curve" smooth="yes"/>
      <point x="585" y="1167"/>
      <point x="480" y="1101"/>
      <point x="412" y="1005" type="curve"/>
      <point x="412" y="1536" type="line"/>
      <point x="124" y="1500" type="line"/>
      <point x="124" y="12" type="line"/>
    </contour>
    <contour>
      <point x="412" y="843" type="line"/>
      <point x="438" y="870"/>
      <point x="516" y="922"/>
      <point x="572" y="922" type="curve" smooth="yes"/>
      <point x="677" y="922"/>
      <point x="702" y="837"/>
      <point x="702" y="576" type="curve" smooth="yes"/>
      <point x="702" y="363"/>
      <point x="693" y="179"/>
      <point x="552" y="179" type="curve" smooth="yes"/>
      <point x="483" y="179"/>
      <point x="412" y="240"/>
      <point x="412" y="480" type="curve" smooth="yes"/>
    </contour>
  </outline>
</glyph>
<glyph name="f" format="1">
  <advance width="693"/>
  <unicode hex="0066"/>
  <outline>
    <contour>
      <point x="180" y="-12" type="line"/>
      <point x="468" y="12" type="line"/>
      <point x="468" y="936" type="line"/>
      <point x="659" y="936" type="line"/>
      <point x="671" y="1152" type="line"/>
      <point x="468" y="1152" type="line"/>
      <point x="468" y="1173" type="line" smooth="yes"/>
      <point x="468" y="1257"/>
      <point x="478" y="1344"/>
      <point x="598" y="1344" type="curve" smooth="yes"/>
      <point x="661" y="1344" type="line"/>
      <point x="661" y="1516" type="line"/>
      <point x="628.586" y="1529.51"/>
      <point x="578.736" y="1546"/>
      <point x="466" y="1546" type="curve" smooth="yes"/>
      <point x="188" y="1546"/>
      <point x="180" y="1360"/>
      <point x="180" y="1174" type="curve" smooth="yes"/>
      <point x="180" y="1152" type="line"/>
      <point x="50" y="1152" type="line"/>
      <point x="38" y="936" type="line"/>
      <point x="180" y="936" type="line"/>
    </contour>
  </outline>
</glyph>
<glyph name="o" format="1">
  <advance width="1004"/>
  <unicode hex="006F"/>
  <outline>
    <contour>
      <point x="502" y="-27" type="curve" smooth="yes"/>
      <point x="783" y="-27"/>
      <point x="934" y="221"/>
      <point x="934" y="577" type="curve" smooth="yes"/>
      <point x="934" y="922"/>
      <point x="783" y="1167"/>
      <point x="502" y="1167" type="curve" smooth="yes"/>
      <point x="214" y="1167"/>
      <point x="70" y="922"/>
      <point x="70" y="577" type="curve" smooth="yes"/>
      <point x="70" y="221"/>
      <point x="214" y="-27"/>
    </contour>
    <contour>
      <point x="500" y="187" type="curve" smooth="yes"/>
      <point x="357" y="187"/>
      <point x="358" y="434"/>
      <point x="358" y="577" type="curve" smooth="yes"/>
      <point x="358" y="716"/>
      <point x="357" y="964"/>
      <point x="501" y="964" type="curve" smooth="yes"/>
      <point x="642" y="964"/>
      <point x="645" y="716"/>
      <point x="645" y="577" type="curve" smooth="yes"/>
      <point x="645" y="434"/>
      <point x="642" y="187"/>
    </contour>
  </outline>
</glyph>
<glyph name="p" format="1">
  <advance width="1034"/>
  <unicode hex="0070"/>
  <outline>
    <contour>
      <point x="124" y="-358" type="line"/>
      <point x="412" y="-302" type="line"/>
      <point x="412" y="99" type="line"/>
      <point x="452.814" y="33.6974"/>
      <point x="515.419" y="-27"/>
      <point x="634" y="-27" type="curve" smooth="yes"/>
      <point x="954" y="-27"/>
      <point x="960" y="359"/>
      <point x="960" y="576" type="curve" smooth="yes"/>
      <point x="960" y="811"/>
      <point x="974" y="1167"/>
      <point x="656" y="1167" type="curve" smooth="yes"/>
      <point x="559" y="1167"/>
      <point x="475" y="1104"/>
      <point x="412" y="1041" type="curve"/>
      <point x="412" y="1152" type="line"/>
      <point x="124" y="1128" type="line"/>
    </contour>
    <contour>
      <point x="535" y="960" type="curve" smooth="yes"/>
      <point x="624" y="960"/>
      <point x="672" y="864"/>
      <point x="672" y="576" type="curve" smooth="yes"/>
      <point x="672" y="258"/>
      <point x="616" y="193"/>
      <point x="537" y="193" type="curve" smooth="yes"/>
      <point x="467.46" y="193"/>
      <point x="433.782" y="238.712"/>
      <point x="412" y="285" type="curve"/>
      <point x="412" y="880" type="line"/>
      <point x="438.392" y="919.588"/>
      <point x="475.428" y="960"/>
    </contour>
  </outline>
</glyph>
<glyph name="u" format="1">
  <advance width="1104"/>
  <unicode hex="0075"/>
  <outline>
    <contour>
      <point x="404" y="1152" type="line"/>
      <point x="116" y="1128" type="line"/>
      <point x="116" y="264" type="line" smooth="yes"/>
      <point x="116" y="85"/>
      <point x="223" y="-27"/>
      <point x="372" y="-27" type="curve" smooth="yes"/>
      <point x="468" y="-27"/>
      <point x="592" y="20"/>
      <point x="692" y="135" type="curve"/>
      <point x="692" y="-12" type="line"/>
      <point x="980" y="12" type="line"/>
      <point x="980" y="1152" type="line"/>
      <point x="692" y="1128" type="line"/>
      <point x="692" y="318" type="line"/>
      <point x="634" y="249"/>
      <point x="564" y="228"/>
      <point x="512" y="228" type="curve" smooth="yes"/>
      <point x="441" y="228"/>
      <point x="404" y="268"/>
      <point x="404" y="381" type="curve" smooth="yes"/>
    </contour>
  </outline>
</glyph>
<glyph name="asciitilde" format="1">
  <advance width="815"/>
  <unicode hex="007E"/>
  <outline>
    <contour>
      <point x="91" y="768" type="line"/>
      <point x="110" y="788"/>
      <point x="130" y="806"/>
      <point x="151" y="823" type="curve"/>
      <point x="187" y="850"/>
      <point x="235" y="878"/>
      <point x="284" y="878" type="curve" smooth="yes"/>
      <point x="393" y="878"/>
      <point x="448" y="757"/>
      <point x="538" y="757" type="curve" smooth="yes"/>
      <point x="658" y="757"/>
      <point x="729" y="888"/>
      <point x="729" y="892" type="curve" smooth="yes"/>
      <point x="729" y="1074" type="line"/>
      <point x="718" y="1053"/>
      <point x="704" y="1035"/>
      <point x="687" y="1019" type="curve" smooth="yes"/>
      <point x="658" y="991"/>
      <point x="611" y="964"/>
      <point x="546" y="964" type="curve" smooth="yes"/>
      <point x="464" y="964"/>
      <point x="407" y="1074"/>
      <point x="305" y="1074" type="curve" smooth="yes"/>
      <point x="254" y="1074"/>
      <point x="202" y="1038"/>
      <point x="161" y="1003" type="curve" smooth="yes"/>
      <point x="137" y="982"/>
      <point x="114" y="958"/>
      <point x="92" y="932" type="curve"/>
    </contour>
  </outline>
</glyph>
<glyph name="section" format="1">
  <advance width="984"/>
  <unicode hex="00A7"/>
  <outline>
    <contour>
      <point x="83" y="240" type="line"/>
      <point x="123" y="74"/>
      <point x="258" y="-32"/>
      <point x="492" y="-32" type="curve" smooth="yes"/>
      <point x="689" y="-32"/>
      <point x="894" y="85"/>
      <point x="894" y="317" type="curve" smooth="yes"/>
      <point x="894" y="410"/>
      <point x="863" y="478"/>
      <point x="812" y="529" type="curve"/>
      <point x="868" y="589"/>
      <point x="904" y="669"/>
      <point x="904" y="773" type="curve" smooth="yes"/>
      <point x="904" y="948"/>
      <point x="801" y="1036"/>
      <point x="672" y="1090" type="curve" smooth="yes"/>
      <point x="467" y="1175" type="line"/>
      <point x="431" y="1188"/>
      <point x="367" y="1224"/>
      <point x="367" y="1273" type="curve" smooth="yes"/>
      <point x="367" y="1338"/>
      <point x="431" y="1365"/>
      <point x="491" y="1365" type="curve" smooth="yes"/>
      <point x="547" y="1365"/>
      <point x="583" y="1331"/>
      <point x="606" y="1296" type="curve" smooth="yes"/>
      <point x="619" y="1275"/>
      <point x="629" y="1252"/>
      <point x="636" y="1227" type="curve"/>
      <point x="872" y="1300" type="line"/>
      <point x="821" y="1473"/>
      <point x="655" y="1568"/>
      <point x="489" y="1568" type="curve" smooth="yes"/>
      <point x="290" y="1568"/>
      <point x="100" y="1449"/>
      <point x="100" y="1225" type="curve" smooth="yes"/>
      <point x="100" y="1136"/>
      <point x="124" y="1063"/>
      <point x="173" y="1007" type="curve"/>
      <point x="122" y="948"/>
      <point x="90" y="874"/>
      <point x="90" y="779" type="curve" smooth="yes"/>
      <point x="90" y="624"/>
      <point x="161" y="516"/>
      <point x="290" y="465" type="curve"/>
      <point x="531" y="367" type="line" smooth="yes"/>
      <point x="578" y="348"/>
      <point x="618" y="317"/>
      <point x="618" y="268" type="curve" smooth="yes"/>
      <point x="618" y="197"/>
      <point x="527" y="175"/>
      <point x="473" y="175" type="curve" smooth="yes"/>
      <point x="402" y="175"/>
      <point x="360" y="208"/>
      <point x="336" y="243" type="curve"/>
      <point x="321" y="263"/>
      <point x="311" y="286"/>
      <point x="305" y="312" type="curve"/>
    </contour>
    <contour>
      <point x="357" y="827" type="curve" smooth="yes"/>
      <point x="357" y="854"/>
      <point x="367" y="873"/>
      <point x="380" y="888" type="curve"/>
      <point x="541" y="823" type="line" smooth="yes"/>
      <point x="588" y="804"/>
      <point x="628" y="773"/>
      <point x="628" y="724" type="curve" smooth="yes"/>
      <point x="628" y="689"/>
      <point x="610" y="669"/>
      <point x="590" y="654" type="curve"/>
      <point x="457" y="709" type="line"/>
      <point x="420" y="727"/>
      <point x="357" y="767"/>
    </contour>
  </outline>
</glyph>
<glyph name="registered" format="1">
  <advance width="1397"/>
  <unicode hex="00AE"/>
  <outline>
    <contour>
      <point x="54" y="673" type="curve" smooth="yes"/>
      <point x="54" y="301"/>
      <point x="344" y="0"/>
      <point x="699" y="0" type="curve" smooth="yes"/>
      <point x="1053" y="0"/>
      <point x="1343" y="301"/>
      <point x="1343" y="673" type="curve" smooth="yes"/>
      <point x="1343" y="1045"/>
      <point x="1053" y="1346"/>
      <point x="699" y="1346" type="curve" smooth="yes"/>
      <point x="344" y="1346"/>
      <point x="54" y="1045"/>
    </contour>
    <contour>
      <point x="187" y="673" type="curve" smooth="yes"/>
      <point x="187" y="972"/>
      <point x="417" y="1213"/>
      <point x="699" y="1213" type="curve" smooth="yes"/>
      <point x="979" y="1213"/>
      <point x="1210" y="972"/>
      <point x="1210" y="673" type="curve" smooth="yes"/>
      <point x="1210" y="374"/>
      <point x="979" y="133"/>
      <point x="699" y="133" type="curve" smooth="yes"/>
      <point x="417" y="133"/>
      <point x="187" y="374"/>
    </contour>
    <contour>
      <point x="974" y="344" type="line"/>
      <point x="841" y="659" type="line"/>
      <point x="912" y="686"/>
      <point x="959" y="738"/>
      <point x="959" y="837" type="curve" smooth="yes"/>
      <point x="959" y="1075"/>
      <point x="732" y="1065"/>
      <point x="555" y="1065" type="curve" smooth="yes"/>
      <point x="444" y="1065" type="line"/>
      <point x="444" y="289" type="line"/>
      <point x="617" y="305" type="line"/>
      <point x="617" y="629" type="line"/>
      <point x="635" y="629"/>
      <point x="665" y="629"/>
      <point x="684" y="630" type="curve"/>
      <point x="814" y="288" type="line"/>
    </contour>
    <contour>
      <point x="619" y="751" type="line"/>
      <point x="619" y="928" type="line"/>
      <point x="652" y="928" type="line" smooth="yes"/>
      <point x="748" y="928"/>
      <point x="798" y="915"/>
      <point x="798" y="838" type="curve" smooth="yes"/>
      <point x="798" y="766"/>
      <point x="735" y="751"/>
      <point x="656" y="751" type="curve" smooth="yes"/>
    </contour>
  </outline>
</glyph>
<glyph name="threequarters" format="1">
  <advance width="1981"/>
  <unicode hex="00BE"/>
  <outline>
    <contour>
      <point x="669" y="0" type="line"/>
      <point x="957" y="0" type="line"/>
      <point x="1341" y="1536" type="line"/>
      <point x="1053" y="1536" type="line"/>
    </contour>
    <contour>
      <point x="287" y="1294" type="line"/>
      <point x="293" y="1310"/>
      <point x="300" y="1324"/>
      <point x="309" y="1337" type="curve" smooth="yes"/>
      <point x="324" y="1360"/>
      <point x="344" y="1381"/>
      <point x="375" y="1381" type="curve" smooth="yes"/>
      <point x="432" y="1381"/>
      <point x="461" y="1337"/>
      <point x="461" y="1289" type="curve" smooth="yes"/>
      <point x="461" y="1185"/>
      <point x="374" y="1164"/>
      <point x="269" y="1164" type="curve"/>
      <point x="269" y="971" type="line"/>
      <point x="381" y="971"/>
      <point x="475" y="951"/>
      <point x="475" y="828" type="curve" smooth="yes"/>
      <point x="475" y="772"/>
      <point x="436" y="722"/>
      <point x="372" y="722" type="curve" smooth="yes"/>
      <point x="302" y="722"/>
      <point x="274" y="767"/>
      <point x="258" y="817" type="curve"/>
      <point x="43" y="754" type="line"/>
      <point x="83" y="602"/>
      <point x="229" y="528"/>
      <point x="385" y="528" type="curve" smooth="yes"/>
      <point x="580" y="528"/>
      <point x="748" y="635"/>
      <point x="748" y="830" type="curve" smooth="yes"/>
      <point x="748" y="965"/>
      <point x="675" y="1039"/>
      <point x="547" y="1079" type="curve"/>
      <point x="719" y="1146"/>
      <point x="734" y="1257"/>
      <point x="734" y="1315" type="curve" smooth="yes"/>
      <point x="734" y="1480"/>
      <point x="567" y="1567"/>
      <point x="397" y="1567" type="curve" smooth="yes"/>
      <point x="251" y="1567"/>
      <point x="160" y="1511"/>
      <point x="80" y="1372" type="curve"/>
    </contour>
    <contour>
      <point x="1561" y="-48" type="line"/>
      <point x="1809" y="-32" type="line"/>
      <point x="1809" y="192" type="line"/>
      <point x="1918" y="192" type="line"/>
      <point x="1934" y="370" type="line"/>
      <point x="1809" y="370" type="line"/>
      <point x="1809" y="960" type="line"/>
      <point x="1523" y="960" type="line"/>
      <point x="1171" y="360" type="line"/>
      <point x="1171" y="192" type="line"/>
      <point x="1561" y="192" type="line"/>
    </contour>
    <contour>
      <point x="1356" y="370" type="line"/>
      <point x="1561" y="711" type="line"/>
      <point x="1561" y="370" type="line"/>
    </contour>
  </outline>
</glyph>
<glyph name="dcaron" format="1">
  <advance width="1315"/>
  <unicode hex="010F"/>
  <outline>
    <contour>
      <point x="944" y="12" type="line"/>
      <point x="944" y="1536" type="line"/>
      <point x="656" y="1500" type="line"/>
      <point x="656" y="1000" type="line"/>
      <point x="631" y="1031"/>
      <point x="604" y="1058"/>
      <point x="575" y="1083" type="curve" smooth="yes"/>
      <point x="527" y="1126"/>
      <point x="459" y="1167"/>
      <point x="395" y="1167" type="curve" smooth="yes"/>
      <point x="168" y="1167"/>
      <point x="78" y="1001"/>
      <point x="78" y="576" type="curve" smooth="yes"/>
      <point x="78" y="160"/>
      <point x="198" y="-27"/>
      <point x="409" y="-27" type="curve" smooth="yes"/>
      <point x="515" y="-27"/>
      <point x="577" y="15"/>
      <point x="612" y="58" type="curve" smooth="yes"/>
      <point x="633" y="83"/>
      <point x="647" y="112"/>
      <point x="656" y="144" type="curve"/>
      <point x="726" y="-12" type="line"/>
    </contour>
    <contour>
      <point x="656" y="480" type="line" smooth="yes"/>
      <point x="656" y="240"/>
      <point x="585" y="179"/>
      <point x="516" y="179" type="curve" smooth="yes"/>
      <point x="375" y="179"/>
      <point x="366" y="363"/>
      <point x="366" y="576" type="curve" smooth="yes"/>
      <point x="366" y="788"/>
      <point x="375" y="956"/>
      <point x="516" y="956" type="curve" smooth="yes"/>
      <point x="551" y="956"/>
      <point x="585" y="933"/>
      <point x="612" y="910" type="curve" smooth="yes"/>
      <point x="627" y="897"/>
      <point x="642" y="881"/>
      <point x="656" y="864" type="curve"/>
    </contour>
    <contour>
      <point x="1084" y="1536" type="line"/>
      <point x="1084" y="1236" type="line"/>
      <point x="1228" y="1248" type="line"/>
      <point x="1227" y="1230"/>
      <point x="1223" y="1214"/>
      <point x="1216" y="1200" type="curve" smooth="yes"/>
      <point x="1204" y="1176"/>
      <point x="1180" y="1152"/>
      <point x="1132" y="1152" type="curve"/>
      <point x="1132" y="960" type="line"/>
      <point x="1177" y="963"/>
      <point x="1217" y="975"/>
      <point x="1252" y="996" type="curve" smooth="yes"/>
      <point x="1312" y="1031"/>
      <point x="1372" y="1104"/>
      <point x="1372" y="1248" type="curve" smooth="yes"/>
      <point x="1372" y="1536" type="line"/>
    </contour>
  </outline>
</glyph>
<glyph name="napostrophe" format="1">
  <advance width="1104"/>
  <unicode hex="0149"/>
  <outline>
    <contour>
      <point x="700" y="-12" type="line"/>
      <point x="988" y="12" type="line"/>
      <point x="988" y="876" type="line" smooth="yes"/>
      <point x="988" y="1055"/>
      <point x="885" y="1167"/>
      <point x="742" y="1167" type="curve" smooth="yes"/>
      <point x="643" y="1167"/>
      <point x="527" y="1105"/>
      <point x="412" y="1005" type="curve"/>
      <point x="412" y="1152" type="line"/>
      <point x="124" y="1128" type="line"/>
      <point x="124" y="-12" type="line"/>
      <point x="412" y="12" type="line"/>
      <point x="412" y="842" type="line"/>
      <point x="479" y="882"/>
      <point x="544" y="922"/>
      <point x="595" y="922" type="curve" smooth="yes"/>
      <point x="658" y="922"/>
      <point x="700" y="882"/>
      <point x="700" y="769" type="curve" smooth="yes"/>
    </contour>
    <contour>
      <point x="71" y="1785" type="line"/>
      <point x="71" y="1497" type="line"/>
      <point x="215" y="1497" type="line"/>
      <point x="214" y="1479"/>
      <point x="210" y="1463"/>
      <point x="203" y="1449" type="curve" smooth="yes"/>
      <point x="191" y="1425"/>
      <point x="167" y="1401"/>
      <point x="119" y="1401" type="curve"/>
      <point x="119" y="1209" type="line"/>
      <point x="164" y="1212"/>
      <point x="204" y="1224"/>
      <point x="239" y="1245" type="curve" smooth="yes"/>
      <point x="299" y="1280"/>
      <point x="359" y="1353"/>
      <point x="359" y="1497" type="curve" smooth="yes"/>
      <point x="359" y="1785" type="line"/>
    </contour>
  </outline>
</glyph>
<glyph name="Tbar" format="1">
  <advance width="977"/>
  <unicode hex="0166"/>
  <outline>
    <contour>
      <point x="341" y="1296" type="line"/>
      <point x="341" y="-12" type="line"/>
      <point x="641" y="12" type="line"/>
      <point x="641" y="1296" type="line"/>
      <point x="928" y="1296" type="line"/>
      <point x="952" y="1536" type="line"/>
      <point x="52" y="1536" type="line"/>
      <point x="28" y="1296" type="line"/>
    </contour>
    <contour>
      <point x="194" y="612" type="line"/>
      <point x="770" y="612" type="line"/>
      <point x="770" y="804" type="line"/>
      <point x="194" y="804" type="line"/>
    </contour>
  </outline>
</glyph>
<glyph name="brevecomb" format="1">
  <advance width="944"/>
  <unicode hex="0306"/>
  <outline>
    <contour>
      <point x="40" y="1728" type="line"/>
      <point x="40" y="1546"/>
      <point x="136" y="1248"/>
      <point x="472" y="1248" type="curve" smooth="yes"/>
      <point x="808" y="1248"/>
      <point x="904" y="1546"/>
      <point x="904" y="1728" type="curve"/>
      <point x="664" y="1728" type="line"/>
      <point x="664" y="1632"/>
      <point x="664" y="1488"/>
      <point x="472" y="1488" type="curve" smooth="yes"/>
      <point x="280" y="1488"/>
      <point x="280" y="1632"/>
      <point x="280" y="1728" type="curve"/>
    </contour>
  </outline>
</glyph>
<glyph name="dotaccentcmb" format="1">
  <advance width="380"/>
  <unicode hex="0307"/>
  <outline>
    <contour>
      <point x="46" y="1536" type="line"/>
      <point x="46" y="1248" type="line"/>
      <point x="334" y="1248" type="line"/>
      <point x="334" y="1536" type="line"/>
    </contour>
  </outline>
</glyph>
<glyph name="uni0311" format="1">
  <advance width="1018"/>
  <unicode hex="0311"/>
  <outline>
    <contour>
      <point x="317" y="1248" type="line"/>
      <point x="317" y="1344"/>
      <point x="317" y="1488"/>
      <point x="509" y="1488" type="curve" smooth="yes"/>
      <point x="701" y="1488"/>
      <point x="701" y="1344"/>
      <point x="701" y="1248" type="curve"/>
      <point x="941" y="1248" type="line"/>
      <point x="941" y="1430"/>
      <point x="845" y="1728"/>
      <point x="509" y="1728" type="curve" smooth="yes"/>
      <point x="173" y="1728"/>
      <point x="77" y="1430"/>
      <point x="77" y="1248" type="curve"/>
    </contour>
  </outline>
</glyph>
<glyph name="quotedblright" format="1">
  <advance width="842"/>
  <unicode hex="201D"/>
  <outline>
    <contour>
      <point x="471" y="1536" type="line"/>
      <point x="471" y="1236" type="line"/>
      <point x="615" y="1248" type="line"/>
      <point x="614" y="1230"/>
      <point x="610" y="1214"/>
      <point x="603" y="1200" type="curve" smooth="yes"/>
      <point x="591" y="1176"/>
      <point x="567" y="1152"/>
      <point x="519" y="1152" type="curve"/>
      <point x="519" y="960" type="line"/>
      <point x="564" y="963"/>
      <point x="604" y="975"/>
      <point x="639" y="996" type="curve" smooth="yes"/>
      <point x="699" y="1031"/>
      <point x="759" y="1104"/>
      <point x="759" y="1248" type="curve" smooth="yes"/>
      <point x="759" y="1536" type="line"/>
    </contour>
    <contour>
      <point x="87" y="1536" type="line"/>
      <point x="87" y="1236" type="line"/>
      <point x="231" y="1248" type="line"/>
      <point x="230" y="1230"/>
      <point x="226" y="1214"/>
      <point x="219" y="1200" type="curve" smooth="yes"/>
      <point x="207" y="1176"/>
      <point x="183" y="1152"/>
      <point x="135" y="1152" type="curve"/>
      <point x="135" y="960" type="line"/>
      <point x="180" y="963"/>
      <point x="220" y="975"/>
      <point x="255" y="996" type="curve" smooth="yes"/>
      <point x="315" y="1031"/>
      <point x="375" y="1104"/>
      <point x="375" y="1248" type="curve" smooth="yes"/>
      <point x="375" y="1536" type="line"/>
    </contour>
  </outline>
</glyph>
<glyph name="quotedblbase" format="1">
  <advance width="873"/>
  <unicode hex="201E"/>
  <outline>
    <contour>
      <point x="484" y="288" type="line"/>
      <point x="484" y="0" type="line"/>
      <point x="628" y="0" type="line"/>
      <point x="627" y="-18"/>
      <point x="623" y="-34"/>
      <point x="616" y="-48" type="curve" smooth="yes"/>
      <point x="604" y="-72"/>
      <point x="580" y="-96"/>
      <point x="532" y="-96" type="curve"/>
      <point x="532" y="-288" type="line"/>
      <point x="577" y="-285"/>
      <point x="617" y="-273"/>
      <point x="652" y="-252" type="curve" smooth="yes"/>
      <point x="712" y="-217"/>
      <point x="772" y="-144"/>
      <point x="772" y="0" type="curve" smooth="yes"/>
      <point x="772" y="288" type="line"/>
    </contour>
    <contour>
      <point x="100" y="288" type="line"/>
      <point x="100" y="0" type="line"/>
      <point x="244" y="0" type="line"/>
      <point x="243" y="-18"/>
      <point x="239" y="-34"/>
      <point x="232" y="-48" type="curve" smooth="yes"/>
      <point x="220" y="-72"/>
      <point x="196" y="-96"/>
      <point x="148" y="-96" type="curve"/>
      <point x="148" y="-288" type="line"/>
      <point x="193" y="-285"/>
      <point x="233" y="-273"/>
      <point x="268" y="-252" type="curve" smooth="yes"/>
      <point x="328" y="-217"/>
      <point x="388" y="-144"/>
      <point x="388" y="0" type="curve" smooth="yes"/>
      <point x="388" y="288" type="line"/>
    </contour>
  </outline>
</glyph>
<glyph name="daggerdbl" format="1">
  <advance width="822"/>
  <unicode hex="2021"/>
  <outline>
    <contour>
      <point x="88" y="1152" type="line"/>
      <point x="76" y="960" type="line"/>
      <point x="292" y="960" type="line"/>
      <point x="292" y="672" type="line"/>
      <point x="88" y="672" type="line"/>
      <point x="76" y="480" type="line"/>
      <point x="292" y="480" type="line"/>
      <point x="292" y="180" type="line"/>
      <point x="532" y="192" type="line"/>
      <point x="532" y="480" type="line"/>
      <point x="736" y="480" type="line"/>
      <point x="748" y="672" type="line"/>
      <point x="532" y="672" type="line"/>
      <point x="532" y="960" type="line"/>
      <point x="736" y="960" type="line"/>
      <point x="748" y="1152" type="line"/>
      <point x="532" y="1152" type="line"/>
      <point x="532" y="1440" type="line"/>
      <point x="292" y="1428" type="line"/>
      <point x="292" y="1152" type="line"/>
    </contour>
  </outline>
</glyph>
<glyph name="bullet" format="1">
  <advance width="818"/>
  <unicode hex="2022"/>
  <outline>
    <contour>
      <point x="72" y="720" type="curve" smooth="yes"/>
      <point x="72" y="528"/>
      <point x="187" y="385"/>
      <point x="416" y="385" type="curve" smooth="yes"/>
      <point x="629" y="385"/>
      <point x="745" y="528"/>
      <point x="745" y="720" type="curve" smooth="yes"/>
      <point x="745" y="912"/>
      <point x="629" y="1056"/>
      <point x="416" y="1056" type="curve" smooth="yes"/>
      <point x="187" y="1056"/>
      <point x="72" y="912"/>
    </contour>
  </outline>
</glyph>
<glyph name="guilsinglleft" format="1">
  <advance width="800"/>
  <unicode hex="2039"/>
  <outline>
    <contour>
      <point x="692" y="59" type="line"/>
      <point x="706" y="402" type="line"/>
      <point x="299" y="607" type="line"/>
      <point x="680" y="833" type="line"/>
      <point x="694" y="1094" type="line"/>
      <point x="54" y="704" type="line"/>
      <point x="54" y="439" type="line"/>
    </contour>
  </outline>
</glyph>
<glyph name="lessequal" format="1">
  <advance width="979"/>
  <unicode hex="2264"/>
  <outline>
    <contour>
      <point x="869" y="473" type="line"/>
      <point x="883" y="816" type="line"/>
      <point x="406" y="991" type="line"/>
      <point x="857" y="1187" type="line"/>
      <point x="871" y="1448" type="line"/>
      <point x="61" y="1088" type="line"/>
      <point x="61" y="823" type="line"/>
    </contour>
    <contour>
      <point x="184" y="-1" type="line"/>
      <point x="760" y="-1" type="line"/>
      <point x="760" y="237" type="line"/>
      <point x="184" y="237" type="line"/>
    </contour>
  </outline>
</glyph>
<glyph name="commaaccent" format="1">
  <advance width="481"/>
  <unicode hex="F6C3"/>
  <outline>
    <contour>
      <point x="102" y="672" type="line"/>
      <point x="102" y="384" type="line"/>
      <point x="246" y="384" type="line"/>
      <point x="245" y="366"/>
      <point x="241" y="350"/>
      <point x="234" y="336" type="curve" smooth="yes"/>
      <point x="222" y="312"/>
      <point x="198" y="288"/>
      <point x="150" y="288" type="curve"/>
      <point x="150" y="96" type="line"/>
      <point x="195" y="99"/>
      <point x="235" y="111"/>
      <point x="270" y="132" type="curve" smooth="yes"/>
      <point x="330" y="167"/>
      <point x="390" y="240"/>
      <point x="390" y="384" type="curve" smooth="yes"/>
      <point x="390" y="672" type="line"/>
    </contour>
  </outline>
</glyph>
<glyph name="fi" format="1">
  <advance width="1287"/>
  <unicode hex="FB01"/>
  <outline>
    <contour>
      <point x="875" y="-12" type="line"/>
      <point x="1163" y="12" type="line"/>
      <point x="1163" y="1152" type="line"/>
      <point x="465" y="1152" type="line"/>
      <point x="465" y="1173" type="line" smooth="yes"/>
      <point x="465" y="1257"/>
      <point x="475" y="1344"/>
      <point x="595" y="1344" type="curve" smooth="yes"/>
      <point x="658" y="1344" type="line"/>
      <point x="658" y="1516" type="line"/>
      <point x="646" y="1521"/>
      <point x="631" y="1526"/>
      <point x="613" y="1531" type="curve" smooth="yes"/>
      <point x="582" y="1538"/>
      <point x="534" y="1546"/>
      <point x="463" y="1546" type="curve" smooth="yes"/>
      <point x="185" y="1546"/>
      <point x="177" y="1360"/>
      <point x="177" y="1174" type="curve" smooth="yes"/>
      <point x="177" y="1152" type="line"/>
      <point x="59" y="1152" type="line"/>
      <point x="35" y="917" type="line"/>
      <point x="177" y="917" type="line"/>
      <point x="177" y="-12" type="line"/>
      <point x="465" y="12" type="line"/>
      <point x="465" y="915" type="line"/>
      <point x="875" y="915" type="line"/>
    </contour>
    <contour>
      <point x="875" y="1600" type="line"/>
      <point x="875" y="1288" type="line"/>
      <point x="1163" y="1300" type="line"/>
      <point x="1163" y="1600" type="line"/>
    </contour>
  </outline>
</glyph>
<glyph name="fl" format="1">
  <advance width="1287"/>
  <unicode hex="FB02"/>
  <outline>
    <contour>
      <point x="875" y="-12" type="line"/>
      <point x="1163" y="12" type="line"/>
      <point x="1163" y="1536" type="line"/>
      <point x="563" y="1536" type="line" smooth="yes"/>
      <point x="185" y="1536"/>
      <point x="177" y="1360"/>
      <point x="177" y="1174" type="curve" smooth="yes"/>
      <point x="177" y="1152" type="line"/>
      <point x="59" y="1152" type="line"/>
      <point x="35" y="917" type="line"/>
      <point x="177" y="917" type="line"/>
      <point x="177" y="-12" type="line"/>
      <point x="465" y="12" type="line"/>
      <point x="465" y="915" type="line"/>
      <point x="632" y="915" type="line"/>
      <point x="656" y="1152" type="line"/>
      <point x="465" y="1152" type="line"/>
      <point x="465" y="1173" type="line" smooth="yes"/>
      <point x="465" y="1257"/>
      <point x="470" y="1344"/>
      <point x="555" y="1344" type="curve" smooth="yes"/>
      <point x="875" y="1344" type="line"/>
    </contour>
  </outline>
</glyph>
